<svg width="109" height="59" viewBox="0 0 109 59" fill="none" xmlns="http://www.w3.org/2000/svg">
<path d="M68 0H41C38.7909 0 37 1.79086 37 4V55C37 57.2091 38.7909 59 41 59H68C70.2091 59 72 57.2091 72 55V4C72 1.79086 70.2091 0 68 0Z" fill="#5482DB"/>
<path d="M68 2H41C39.8954 2 39 2.89543 39 4V55C39 56.1046 39.8954 57 41 57H68C69.1046 57 70 56.1046 70 55V4C70 2.89543 69.1046 2 68 2Z" fill="white"/>
<path d="M48 1H61V2C61 2.53043 60.7893 3.03914 60.4142 3.41421C60.0391 3.78929 59.5304 4 59 4H50C49.4696 4 48.9609 3.78929 48.5858 3.41421C48.2107 3.03914 48 2.53043 48 2V1Z" fill="#5482DB"/>
<path d="M61.5553 24.312V34.612C61.5548 35.0401 61.3845 35.4506 61.0817 35.7534C60.779 36.0561 60.3685 36.2264 59.9403 36.227H49.6403C49.2122 36.2259 48.8019 36.0551 48.4995 35.7519C48.1972 35.4488 48.0273 35.0381 48.0273 34.61V24.31C48.0284 23.8821 48.199 23.4722 48.5017 23.1699C48.8044 22.8675 49.2145 22.6975 49.6423 22.697H59.9423C60.3702 22.698 60.7801 22.8686 61.0824 23.1713C61.3848 23.474 61.5548 23.8841 61.5553 24.312Z" fill="#ECF9FD"/>
<path d="M61.5531 24.312V34.612C61.5525 35.0401 61.3822 35.4506 61.0795 35.7534C60.7767 36.0561 60.3662 36.2264 59.938 36.227H54.7891V22.697H59.938C60.3662 22.6975 60.7767 22.8678 61.0795 23.1706C61.3822 23.4733 61.5525 23.8838 61.5531 24.312Z" fill="#ECF9FD"/>
<path d="M54.7905 30.0801H45.5137C45.3598 30.0801 45.2123 30.019 45.1035 29.9102C44.9947 29.8014 44.9336 29.6539 44.9336 29.5001C44.9336 29.3462 44.9947 29.1987 45.1035 29.0899C45.2123 28.9811 45.3598 28.92 45.5137 28.92H64.0664C64.2202 28.92 64.3678 28.9811 64.4766 29.0899C64.5853 29.1987 64.6465 29.3462 64.6465 29.5001C64.6465 29.6539 64.5853 29.8014 64.4766 29.9102C64.3678 30.019 64.2202 30.0801 64.0664 30.0801H54.7905Z" fill="#5482DB"/>
<path d="M63.5243 24.514V21.744C63.5238 21.4845 63.4205 21.2358 63.237 21.0523C63.0535 20.8688 62.8048 20.7655 62.5453 20.765H59.7753C59.6215 20.765 59.474 20.7039 59.3652 20.5951C59.2564 20.4863 59.1953 20.3388 59.1953 20.185C59.1953 20.0312 59.2564 19.8836 59.3652 19.7749C59.474 19.6661 59.6215 19.605 59.7753 19.605H62.5453C63.1125 19.6055 63.6562 19.831 64.0573 20.2321C64.4583 20.6331 64.6838 21.1768 64.6843 21.744V24.514C64.6843 24.6678 64.6232 24.8153 64.5144 24.9241C64.4057 25.0329 64.2581 25.094 64.1043 25.094C63.9505 25.094 63.803 25.0329 63.6942 24.9241C63.5854 24.8153 63.5243 24.6678 63.5243 24.514Z" fill="#5482DB"/>
<path d="M62.5453 39.395H59.7753C59.6215 39.395 59.474 39.3338 59.3652 39.2251C59.2564 39.1163 59.1953 38.9688 59.1953 38.8149C59.1953 38.6611 59.2564 38.5136 59.3652 38.4048C59.474 38.296 59.6215 38.235 59.7753 38.235H62.5453C62.8048 38.2344 63.0535 38.1311 63.237 37.9476C63.4205 37.7641 63.5238 37.5154 63.5243 37.256V34.486C63.5243 34.3321 63.5854 34.1846 63.6942 34.0758C63.803 33.9671 63.9505 33.9059 64.1043 33.9059C64.2581 33.9059 64.4057 33.9671 64.5144 34.0758C64.6232 34.1846 64.6843 34.3321 64.6843 34.486V37.256C64.6838 37.8231 64.4583 38.3669 64.0573 38.7679C63.6562 39.1689 63.1125 39.3944 62.5453 39.395Z" fill="#5482DB"/>
<path d="M44.8945 24.514V21.744C44.8951 21.1768 45.1206 20.6331 45.5216 20.2321C45.9226 19.831 46.4664 19.6055 47.0335 19.605H49.8035C49.9574 19.605 50.1049 19.6661 50.2137 19.7749C50.3224 19.8836 50.3835 20.0312 50.3835 20.185C50.3835 20.3388 50.3224 20.4863 50.2137 20.5951C50.1049 20.7039 49.9574 20.765 49.8035 20.765H47.0335C46.774 20.7655 46.5253 20.8688 46.3419 21.0523C46.1584 21.2358 46.0551 21.4845 46.0545 21.744V24.514C46.0545 24.6678 45.9934 24.8153 45.8847 24.9241C45.7759 25.0329 45.6284 25.094 45.4745 25.094C45.3207 25.094 45.1732 25.0329 45.0644 24.9241C44.9556 24.8153 44.8945 24.6678 44.8945 24.514V24.514Z" fill="#5482DB"/>
<path d="M49.8035 39.395H47.0335C46.4664 39.3944 45.9226 39.1689 45.5216 38.7679C45.1206 38.3669 44.8951 37.8231 44.8945 37.256V34.486C44.8945 34.3321 44.9556 34.1846 45.0644 34.0758C45.1732 33.9671 45.3207 33.9059 45.4745 33.9059C45.6284 33.9059 45.7759 33.9671 45.8847 34.0758C45.9934 34.1846 46.0545 34.3321 46.0545 34.486V37.256C46.0551 37.5154 46.1584 37.7641 46.3419 37.9476C46.5253 38.1311 46.774 38.2344 47.0335 38.235H49.8035C49.9574 38.235 50.1049 38.296 50.2137 38.4048C50.3224 38.5136 50.3835 38.6611 50.3835 38.8149C50.3835 38.9688 50.3224 39.1163 50.2137 39.2251C50.1049 39.3338 49.9574 39.395 49.8035 39.395Z" fill="#5482DB"/>
<path d="M25 0H6C2.68629 0 0 2.68629 0 6V53C0 56.3137 2.68629 59 6 59H25C28.3137 59 31 56.3137 31 53V6C31 2.68629 28.3137 0 25 0Z" fill="#E6E6E6"/>
<path d="M25 2H6C3.79086 2 2 3.79086 2 6V53C2 55.2091 3.79086 57 6 57H25C27.2091 57 29 55.2091 29 53V6C29 3.79086 27.2091 2 25 2Z" fill="white"/>
<path d="M12 1H19V2C19 2.53043 18.7893 3.03914 18.4142 3.41421C18.0391 3.78929 17.5304 4 17 4H14C13.4696 4 12.9609 3.78929 12.5858 3.41421C12.2107 3.03914 12 2.53043 12 2V1Z" fill="#E6E6E6"/>
<path d="M22.2663 24.311V34.611C22.2658 35.0391 22.0954 35.4496 21.7927 35.7524C21.4899 36.0551 21.0794 36.2255 20.6513 36.226H10.3513C9.92312 36.2249 9.51285 36.0541 9.21047 35.751C8.90809 35.4478 8.73828 35.0371 8.73828 34.609V24.309C8.73934 23.8812 8.90989 23.4712 9.21259 23.1689C9.51529 22.8666 9.92546 22.6965 10.3533 22.696H20.6533C21.0811 22.697 21.4911 22.8676 21.7934 23.1703C22.0957 23.473 22.2658 23.8832 22.2663 24.311Z" fill="#ECF9FD"/>
<path d="M22.264 24.311V34.611C22.2635 35.0391 22.0932 35.4496 21.7904 35.7524C21.4876 36.0551 21.0771 36.2255 20.649 36.226H15.5V22.696H20.649C21.0771 22.6965 21.4876 22.8668 21.7904 23.1696C22.0932 23.4724 22.2635 23.8828 22.264 24.311Z" fill="#ECF9FD"/>
<path d="M15.5015 30.0781H6.22363C6.07007 30.0781 5.92255 30.0167 5.81396 29.9082C5.70538 29.7996 5.64453 29.6525 5.64453 29.499C5.64453 29.3454 5.70538 29.1979 5.81396 29.0893C5.92255 28.9807 6.07007 28.9199 6.22363 28.9199H24.7773C24.854 28.917 24.9302 28.9303 25.0015 28.9584C25.0728 28.9866 25.1379 29.029 25.1919 29.0834C25.2459 29.1378 25.2878 29.2029 25.3154 29.2744C25.3431 29.3459 25.3559 29.4224 25.3525 29.499C25.3559 29.5756 25.3431 29.6521 25.3154 29.7236C25.2878 29.7951 25.2459 29.8601 25.1919 29.9145C25.1379 29.9689 25.0728 30.0114 25.0015 30.0395C24.9302 30.0676 24.854 30.0809 24.7773 30.0781H15.5015Z" fill="#E6E6E6"/>
<path d="M24.2353 24.513V21.743C24.2347 21.4835 24.1314 21.2348 23.9479 21.0513C23.7645 20.8678 23.5157 20.7645 23.2563 20.764H20.4863C20.3324 20.764 20.1849 20.7029 20.0761 20.5941C19.9674 20.4854 19.9062 20.3378 19.9062 20.184C19.9062 20.0302 19.9674 19.8827 20.0761 19.7739C20.1849 19.6651 20.3324 19.604 20.4863 19.604H23.2563C23.8234 19.6045 24.3672 19.8301 24.7682 20.2311C25.1692 20.6321 25.3947 21.1759 25.3953 21.743V24.513C25.3953 24.6668 25.3341 24.8144 25.2254 24.9231C25.1166 25.0319 24.9691 25.093 24.8152 25.093C24.6614 25.093 24.5139 25.0319 24.4051 24.9231C24.2963 24.8144 24.2353 24.6668 24.2353 24.513Z" fill="#E6E6E6"/>
<path d="M23.2563 39.394H20.4863C20.3324 39.394 20.1849 39.3329 20.0761 39.2241C19.9674 39.1153 19.9062 38.9678 19.9062 38.814C19.9062 38.6601 19.9674 38.5126 20.0761 38.4038C20.1849 38.2951 20.3324 38.234 20.4863 38.234H23.2563C23.5157 38.2334 23.7645 38.1301 23.9479 37.9467C24.1314 37.7632 24.2347 37.5145 24.2353 37.255V34.485C24.2353 34.3312 24.2963 34.1836 24.4051 34.0749C24.5139 33.9661 24.6614 33.905 24.8152 33.905C24.9691 33.905 25.1166 33.9661 25.2254 34.0749C25.3341 34.1836 25.3953 34.3312 25.3953 34.485V37.255C25.3947 37.8221 25.1692 38.3659 24.7682 38.7669C24.3672 39.1679 23.8234 39.3935 23.2563 39.394Z" fill="#E6E6E6"/>
<path d="M5.60547 24.513V21.743C5.606 21.1759 5.83153 20.6321 6.23255 20.2311C6.63358 19.8301 7.17733 19.6045 7.74447 19.604H10.5145C10.6683 19.604 10.8158 19.6651 10.9246 19.7739C11.0334 19.8827 11.0945 20.0302 11.0945 20.184C11.0945 20.3378 11.0334 20.4854 10.9246 20.5941C10.8158 20.7029 10.6683 20.764 10.5145 20.764H7.74447C7.48498 20.7645 7.23628 20.8678 7.05279 21.0513C6.86931 21.2348 6.766 21.4835 6.76547 21.743V24.513C6.76547 24.6668 6.70436 24.8144 6.59559 24.9231C6.48682 25.0319 6.33929 25.093 6.18547 25.093C6.03164 25.093 5.88412 25.0319 5.77535 24.9231C5.66658 24.8144 5.60547 24.6668 5.60547 24.513V24.513Z" fill="#E6E6E6"/>
<path d="M10.5145 39.394H7.74447C7.17733 39.3935 6.63358 39.1679 6.23255 38.7669C5.83153 38.3659 5.606 37.8221 5.60547 37.255V34.485C5.60547 34.3312 5.66658 34.1836 5.77535 34.0749C5.88412 33.9661 6.03164 33.905 6.18547 33.905C6.33929 33.905 6.48682 33.9661 6.59559 34.0749C6.70436 34.1836 6.76547 34.3312 6.76547 34.485V37.255C6.766 37.5145 6.86931 37.7632 7.05279 37.9467C7.23628 38.1301 7.48498 38.2334 7.74447 38.234H10.5145C10.6683 38.234 10.8158 38.2951 10.9246 38.4038C11.0334 38.5126 11.0945 38.6601 11.0945 38.814C11.0945 38.9678 11.0334 39.1153 10.9246 39.2241C10.8158 39.3329 10.6683 39.394 10.5145 39.394Z" fill="#E6E6E6"/>
<path d="M105 0H82C79.7909 0 78 1.79086 78 4V55C78 57.2091 79.7909 59 82 59H105C107.209 59 109 57.2091 109 55V4C109 1.79086 107.209 0 105 0Z" fill="#E6E6E6"/>
<path d="M105 6H82C80.8954 6 80 6.89543 80 8V50C80 51.1046 80.8954 52 82 52H105C106.105 52 107 51.1046 107 50V8C107 6.89543 106.105 6 105 6Z" fill="white"/>
<path d="M95.5 54H91.5C90.6716 54 90 54.6716 90 55.5C90 56.3284 90.6716 57 91.5 57H95.5C96.3284 57 97 56.3284 97 55.5C97 54.6716 96.3284 54 95.5 54Z" fill="white"/>
<path d="M94.5 3H92.5C92.2239 3 92 3.22386 92 3.5C92 3.77614 92.2239 4 92.5 4H94.5C94.7761 4 95 3.77614 95 3.5C95 3.22386 94.7761 3 94.5 3Z" fill="white"/>
<path d="M100.661 24.311V34.611C100.66 35.0391 100.49 35.4496 100.187 35.7524C99.8844 36.0551 99.474 36.2255 99.0458 36.226H88.7458C88.3176 36.2249 87.9074 36.0541 87.605 35.751C87.3026 35.4478 87.1328 35.0371 87.1328 34.609V24.309C87.1339 23.8812 87.3044 23.4712 87.6071 23.1689C87.9098 22.8666 88.32 22.6965 88.7478 22.696H99.0478C99.4756 22.697 99.8856 22.8676 100.188 23.1703C100.49 23.473 100.66 23.8832 100.661 24.311Z" fill="#ECF9FD"/>
<path d="M100.659 24.311V34.611C100.658 35.0391 100.488 35.4496 100.185 35.7524C99.8822 36.0551 99.4717 36.2255 99.0435 36.226H93.8945V22.696H99.0435C99.4717 22.6965 99.8822 22.8668 100.185 23.1696C100.488 23.4724 100.658 23.8828 100.659 24.311Z" fill="#ECF9FD"/>
<path d="M93.8945 30.0791H84.6196C84.4657 30.0791 84.3178 30.0176 84.209 29.9087C84.1001 29.7998 84.0391 29.6525 84.0391 29.4985C84.0391 29.3446 84.1001 29.1967 84.209 29.0879C84.3178 28.979 84.4657 28.918 84.6196 28.918H103.171C103.248 28.915 103.325 28.9279 103.396 28.956C103.468 28.9842 103.533 29.027 103.587 29.0815C103.641 29.1361 103.683 29.2012 103.711 29.2729C103.739 29.3446 103.751 29.4213 103.748 29.498C103.751 29.5749 103.739 29.6513 103.711 29.7231C103.684 29.795 103.642 29.8604 103.587 29.915C103.533 29.9697 103.468 30.0123 103.396 30.0405C103.325 30.0687 103.248 30.0821 103.171 30.0791H93.8945Z" fill="#E6E6E6"/>
<path d="M102.63 24.513V21.743C102.629 21.4835 102.526 21.2348 102.342 21.0513C102.159 20.8678 101.91 20.7645 101.651 20.764H98.8808C98.727 20.764 98.5794 20.7029 98.4707 20.5941C98.3619 20.4854 98.3008 20.3378 98.3008 20.184C98.3008 20.0302 98.3619 19.8827 98.4707 19.7739C98.5794 19.6651 98.727 19.604 98.8808 19.604H101.651C102.218 19.6045 102.762 19.8301 103.163 20.2311C103.564 20.6321 103.789 21.1759 103.79 21.743V24.513C103.79 24.6668 103.729 24.8144 103.62 24.9231C103.511 25.0319 103.364 25.093 103.21 25.093C103.056 25.093 102.908 25.0319 102.8 24.9231C102.691 24.8144 102.63 24.6668 102.63 24.513Z" fill="#E6E6E6"/>
<path d="M101.651 39.394H98.8808C98.727 39.394 98.5794 39.3329 98.4707 39.2241C98.3619 39.1153 98.3008 38.9678 98.3008 38.814C98.3008 38.6601 98.3619 38.5126 98.4707 38.4038C98.5794 38.2951 98.727 38.234 98.8808 38.234H101.651C101.91 38.2334 102.159 38.1301 102.342 37.9467C102.526 37.7632 102.629 37.5145 102.63 37.255V34.485C102.63 34.3312 102.691 34.1836 102.8 34.0749C102.908 33.9661 103.056 33.905 103.21 33.905C103.364 33.905 103.511 33.9661 103.62 34.0749C103.729 34.1836 103.79 34.3312 103.79 34.485V37.255C103.789 37.8221 103.564 38.3659 103.163 38.7669C102.762 39.1679 102.218 39.3935 101.651 39.394Z" fill="#E6E6E6"/>
<path d="M84 24.513V21.743C84.0005 21.1759 84.2261 20.6321 84.6271 20.2311C85.0281 19.8301 85.5719 19.6045 86.139 19.604H88.909C89.0628 19.604 89.2104 19.6651 89.3191 19.7739C89.4279 19.8827 89.489 20.0302 89.489 20.184C89.489 20.3378 89.4279 20.4854 89.3191 20.5941C89.2104 20.7029 89.0628 20.764 88.909 20.764H86.139C85.8795 20.7645 85.6308 20.8678 85.4473 21.0513C85.2638 21.2348 85.1605 21.4835 85.16 21.743V24.513C85.16 24.6668 85.0989 24.8144 84.9901 24.9231C84.8814 25.0319 84.7338 25.093 84.58 25.093C84.4262 25.093 84.2786 25.0319 84.1699 24.9231C84.0611 24.8144 84 24.6668 84 24.513V24.513Z" fill="#E6E6E6"/>
<path d="M88.909 39.394H86.139C85.5719 39.3935 85.0281 39.1679 84.6271 38.7669C84.2261 38.3659 84.0005 37.8221 84 37.255V34.485C84 34.3312 84.0611 34.1836 84.1699 34.0749C84.2786 33.9661 84.4262 33.905 84.58 33.905C84.7338 33.905 84.8814 33.9661 84.9901 34.0749C85.0989 34.1836 85.16 34.3312 85.16 34.485V37.255C85.1605 37.5145 85.2638 37.7632 85.4473 37.9467C85.6308 38.1301 85.8795 38.2334 86.139 38.234H88.909C89.0628 38.234 89.2104 38.2951 89.3191 38.4038C89.4279 38.5126 89.489 38.6601 89.489 38.814C89.489 38.9678 89.4279 39.1153 89.3191 39.2241C89.2104 39.3329 89.0628 39.394 88.909 39.394Z" fill="#E6E6E6"/>
</svg>
