<?xml version="1.0" encoding="utf-8"?>
<!-- Generator: Adobe Illustrator 27.0.1, SVG Export Plug-In . SVG Version: 6.00 Build 0)  -->
<svg version="1.1" id="Layer_1" xmlns="http://www.w3.org/2000/svg" xmlns:xlink="http://www.w3.org/1999/xlink" x="0px" y="0px"
	 viewBox="0 0 93 80" style="enable-background:new 0 0 93 80;" xml:space="preserve">
<style type="text/css">
	.st0{fill:#F8F8F8;}
	.st1{fill:#20201D;}
	.st2{fill:#5482DB;}
	.st3{fill:#FFFFFF;}
</style>
<path class="st0" d="M69.9,0H10.1C4.5,0,0,4.5,0,10v60c0,5.5,4.5,10,10.1,10h59.9C75.5,80,80,75.5,80,70V10C80,4.5,75.5,0,69.9,0z"
	/>
<path class="st1" d="M31,36.5H17c-0.8,0-1.6-0.3-2.1-0.9S14,34.3,14,33.5v-14c0-0.8,0.3-1.6,0.9-2.1c0.6-0.6,1.3-0.9,2.1-0.9h14
	c0.8,0,1.6,0.3,2.1,0.9c0.6,0.6,0.9,1.3,0.9,2.1v14c0,0.8-0.3,1.6-0.9,2.1S31.8,36.5,31,36.5z M17,18.5c-0.3,0-0.5,0.1-0.7,0.3
	S16,19.2,16,19.5v14c0,0.3,0.1,0.5,0.3,0.7s0.4,0.3,0.7,0.3h14c0.3,0,0.5-0.1,0.7-0.3s0.3-0.4,0.3-0.7v-14c0-0.3-0.1-0.5-0.3-0.7
	s-0.4-0.3-0.7-0.3H17z"/>
<path class="st1" d="M31,67.5H17c-0.8,0-1.6-0.3-2.1-0.9S14,65.3,14,64.5v-14c0-0.8,0.3-1.6,0.9-2.1s1.3-0.9,2.1-0.9h14
	c0.8,0,1.6,0.3,2.1,0.9s0.9,1.3,0.9,2.1v14c0,0.8-0.3,1.6-0.9,2.1S31.8,67.5,31,67.5z M17,49.5c-0.3,0-0.5,0.1-0.7,0.3
	S16,50.2,16,50.5v14c0,0.3,0.1,0.5,0.3,0.7s0.4,0.3,0.7,0.3h14c0.3,0,0.5-0.1,0.7-0.3s0.3-0.4,0.3-0.7v-14c0-0.3-0.1-0.5-0.3-0.7
	s-0.4-0.3-0.7-0.3H17z"/>
<path class="st2" d="M44.8,13.5h19c0.8,0,1.6,0.3,2.1,0.9s0.9,1.3,0.9,2.1v19c0,0.8-0.3,1.6-0.9,2.1s-1.3,0.9-2.1,0.9h-19
	c-0.8,0-1.6-0.3-2.1-0.9s-0.9-1.3-0.9-2.1v-19c0-0.8,0.3-1.6,0.9-2.1S44,13.5,44.8,13.5z"/>
<path class="st1" d="M61.8,67.5h-14c-0.8,0-1.6-0.3-2.1-0.9c-0.6-0.6-0.9-1.3-0.9-2.1v-14c0-0.8,0.3-1.6,0.9-2.1
	c0.6-0.6,1.3-0.9,2.1-0.9h14c0.8,0,1.6,0.3,2.1,0.9c0.6,0.6,0.9,1.3,0.9,2.1v14c0,0.8-0.3,1.6-0.9,2.1
	C63.3,67.2,62.6,67.5,61.8,67.5z M47.8,49.5c-0.3,0-0.5,0.1-0.7,0.3c-0.2,0.2-0.3,0.4-0.3,0.7v14c0,0.3,0.1,0.5,0.3,0.7
	c0.2,0.2,0.4,0.3,0.7,0.3h14c0.3,0,0.5-0.1,0.7-0.3c0.2-0.2,0.3-0.4,0.3-0.7v-14c0-0.3-0.1-0.5-0.3-0.7c-0.2-0.2-0.4-0.3-0.7-0.3
	H47.8z"/>
<path class="st3" d="M77.8,28.8c-0.3,0.3-0.6,0.7-0.8,1.1c-0.8-0.5-1.8-0.7-2.8-0.4c-0.9,0.2-1.8,0.8-2.3,1.6
	c-0.1,0.1-0.1,0.2-0.2,0.3C71,30.8,70,30.7,69,31c-0.9,0.3-1.7,0.9-2.2,1.7l-2.6-2.9c-0.7-0.7-1.6-1.1-2.5-1.2c-1,0-1.9,0.3-2.6,0.9
	c-0.7,0.6-1.2,1.6-1.2,2.5c-0.1,1,0.3,1.9,0.9,2.6l10.6,11.8l-2.5-0.6l-0.1,0c-1.1-0.2-2.2,0.1-3.1,0.7c-0.9,0.6-1.6,1.6-1.8,2.7
	c-0.2,1.1,0,2.2,0.6,3.2c0.6,0.9,1.5,1.6,2.6,1.9l11.5,3.2l0,0c1.4,0.3,2.8,0.3,4.2,0c1.4-0.4,2.7-1,3.7-2l5.3-4.8
	c1.8-1.7,3-4,3.1-6.5c0.1-2.5-0.7-4.9-2.4-6.8L83,29c-0.7-0.7-1.6-1.2-2.5-1.2C79.5,27.8,78.5,28.1,77.8,28.8"/>
<path d="M77.8,28.8c-0.3,0.3-0.6,0.7-0.8,1.1c-0.4-0.3-0.9-0.4-1.3-0.5c-0.5-0.1-1-0.1-1.4,0.1c-0.5,0.1-0.9,0.3-1.3,0.6
	c-0.4,0.3-0.7,0.6-1,1c-0.1,0.1-0.1,0.2-0.2,0.3c-0.4-0.2-0.9-0.4-1.4-0.4c-0.5-0.1-1,0-1.4,0.1c-0.5,0.1-0.9,0.3-1.3,0.6
	c-0.4,0.3-0.7,0.7-0.9,1.1l-2.6-2.9c-0.3-0.4-0.7-0.7-1.1-0.9c-0.4-0.2-0.9-0.3-1.4-0.4c-0.5,0-1,0-1.4,0.2
	c-0.5,0.2-0.9,0.4-1.2,0.7c-0.4,0.3-0.7,0.7-0.9,1.1c-0.2,0.4-0.3,0.9-0.4,1.4c0,0.5,0,1,0.2,1.4c0.2,0.5,0.4,0.9,0.7,1.2l10.6,11.8
	l-2.5-0.6l-0.1,0c-1.1-0.2-2.2,0.1-3.1,0.7s-1.6,1.6-1.8,2.7c-0.2,1.1,0,2.2,0.6,3.2c0.6,0.9,1.5,1.6,2.6,1.9l11.5,3.2l0,0
	c1.4,0.3,2.8,0.3,4.2,0c1.4-0.4,2.7-1,3.7-2l5.3-4.8c1.8-1.7,3-4,3.1-6.5c0.1-2.5-0.7-4.9-2.4-6.8L83,29c-0.7-0.7-1.6-1.2-2.5-1.2
	C79.5,27.8,78.5,28.1,77.8,28.8z M88.7,39.2c1.2,1.4,1.8,3.1,1.7,5c-0.1,1.8-0.9,3.5-2.3,4.7l-5.3,4.8c-0.8,0.7-1.7,1.2-2.7,1.4
	c-1,0.3-2,0.3-3,0l-11.5-3.2l0,0c-0.5-0.1-0.8-0.4-1.1-0.8c-0.3-0.4-0.3-0.9-0.3-1.3c0.1-0.5,0.3-0.9,0.7-1.1
	c0.4-0.3,0.8-0.4,1.3-0.3l10.3,2.6L60.6,33c-0.1-0.1-0.2-0.2-0.2-0.4c-0.1-0.1-0.1-0.3-0.1-0.4c0-0.2,0-0.3,0.1-0.4
	c0.1-0.1,0.2-0.3,0.3-0.4c0.1-0.1,0.2-0.2,0.4-0.2c0.1-0.1,0.3-0.1,0.4-0.1c0.2,0,0.3,0,0.4,0.1c0.1,0.1,0.3,0.2,0.4,0.3l8.4,9.3
	l1.9-1.7l-3.4-3.8C69,35.2,69,35,68.9,34.9c-0.1-0.1-0.1-0.3-0.1-0.4c0-0.2,0-0.3,0.1-0.4c0.1-0.1,0.2-0.3,0.3-0.4
	c0.1-0.1,0.2-0.2,0.4-0.2c0.1-0.1,0.3-0.1,0.4-0.1c0.2,0,0.3,0,0.4,0.1c0.1,0.1,0.3,0.2,0.4,0.3l3.4,3.8l1.9-1.7l-1.9-2.2
	c-0.1-0.1-0.2-0.2-0.2-0.4c-0.1-0.1-0.1-0.3-0.1-0.4c0-0.2,0-0.3,0.1-0.4s0.2-0.3,0.3-0.4c0.1-0.1,0.2-0.2,0.4-0.2
	c0.1-0.1,0.3-0.1,0.4-0.1c0.2,0,0.3,0,0.4,0.1c0.1,0.1,0.3,0.2,0.4,0.3l1.9,2.2l1.9-1.7l-0.4-0.4c-0.2-0.2-0.3-0.5-0.3-0.8
	c0-0.3,0.2-0.6,0.4-0.8s0.5-0.3,0.8-0.3c0.3,0,0.6,0.2,0.8,0.4L88.7,39.2L88.7,39.2z"/>
<path d="M55.9,24L54,25.7l2.3,2.6l1.9-1.7L55.9,24z"/>
<path d="M59.8,22.5l0,3.5l2.5,0l0-3.5L59.8,22.5z"/>
<path d="M66.2,24l-2.3,2.5l1.8,1.7l2.3-2.5L66.2,24z"/>
<path d="M52.1,29.5L51.8,32l3.4,0.3l0.2-2.5L52.1,29.5z"/>
<path d="M55.7,34L52.9,36l1.5,2l2.8-2.1L55.7,34z"/>
</svg>
